<?xml version="1.0" encoding="UTF-8" standalone="no"?>
<!-- Created with Inkscape (http://www.inkscape.org/) -->

<svg
   xmlns:dc="http://purl.org/dc/elements/1.1/"
   xmlns:cc="http://creativecommons.org/ns#"
   xmlns:rdf="http://www.w3.org/1999/02/22-rdf-syntax-ns#"
   xmlns:svg="http://www.w3.org/2000/svg"
   xmlns="http://www.w3.org/2000/svg"
   xmlns:sodipodi="http://sodipodi.sourceforge.net/DTD/sodipodi-0.dtd"
   xmlns:inkscape="http://www.inkscape.org/namespaces/inkscape"
   width="150mm"
   height="180mm"
   viewBox="0 0 150 180"
   version="1.1"
   id="svg8"
   inkscape:version="0.92.3 (2405546, 2018-03-11)"
   sodipodi:docname="logo.svg">
  <defs
     id="defs2">
    <inkscape:perspective
       sodipodi:type="inkscape:persp3d"
       inkscape:vp_x="0 : 148.50003 : 1"
       inkscape:vp_y="0 : 999.99989 : 0"
       inkscape:vp_z="210.00005 : 148.50003 : 1"
       inkscape:persp3d-origin="105.00001 : 98.999986 : 1"
       id="perspective10" />
  </defs>
  <sodipodi:namedview
     id="base"
     pagecolor="#ffffff"
     bordercolor="#666666"
     borderopacity="1.0"
     inkscape:pageopacity="0.0"
     inkscape:pageshadow="2"
     inkscape:zoom="0.98994949"
     inkscape:cx="-9.8300051"
     inkscape:cy="567.17767"
     inkscape:document-units="px"
     inkscape:current-layer="layer1"
     showgrid="false"
     inkscape:window-width="1366"
     inkscape:window-height="705"
     inkscape:window-x="-8"
     inkscape:window-y="-8"
     inkscape:window-maximized="1"
     fit-margin-top="0"
     fit-margin-left="0"
     fit-margin-right="0"
     fit-margin-bottom="0"
     width="298mm" />
  <metadata
     id="metadata5">
    <rdf:RDF>
      <cc:Work
         rdf:about="">
        <dc:format>image/svg+xml</dc:format>
        <dc:type
           rdf:resource="http://purl.org/dc/dcmitype/StillImage" />
        <dc:title />
      </cc:Work>
    </rdf:RDF>
  </metadata>
  <g
     inkscape:label="Capa 1"
     inkscape:groupmode="layer"
     id="layer1"
     transform="translate(171.66043,106.45941)">
    <g
       id="g3827"
       transform="translate(67.430978)">
      <flowRoot
         xml:space="preserve"
         id="flowRoot3975"
         style="fill:black;fill-opacity:1;stroke:none;font-family:sans-serif;font-style:normal;font-weight:normal;font-size:32px;line-height:1.25;letter-spacing:0px;word-spacing:0px"><flowRegion
           id="flowRegion3977"><rect
             id="rect3979"
             width="266.00305"
             height="413.8338"
             x="-977.43164"
             y="-927.80457" /></flowRegion><flowPara
           id="flowPara3981" /></flowRoot>      <flowRoot
         xml:space="preserve"
         id="flowRoot3983"
         style="fill:black;fill-opacity:1;stroke:none;font-family:sans-serif;font-style:normal;font-weight:normal;font-size:32px;line-height:1.25;letter-spacing:0px;word-spacing:0px"><flowRegion
           id="flowRegion3985"><rect
             id="rect3987"
             width="68.141136"
             height="42.753609"
             x="-977.43164"
             y="-927.80457" /></flowRegion><flowPara
           id="flowPara3989" /></flowRoot>    </g>
    <flowRoot
       xml:space="preserve"
       id="flowRoot40"
       style="font-style:normal;font-weight:normal;font-size:40px;line-height:1.25;font-family:sans-serif;letter-spacing:0px;word-spacing:0px;fill:#000000;fill-opacity:1;stroke:none"><flowRegion
         id="flowRegion42"><rect
           id="rect44"
           width="280"
           height="431.42856"
           x="88.571426"
           y="388.23398" /></flowRegion><flowPara
         id="flowPara46" /></flowRoot>    <flowRoot
       xml:space="preserve"
       id="flowRoot98"
       style="font-style:normal;font-weight:normal;font-size:40px;line-height:1.25;font-family:sans-serif;letter-spacing:0px;word-spacing:0px;fill:#000000;fill-opacity:1;stroke:none"><flowRegion
         id="flowRegion100"><rect
           id="rect102"
           width="1148.5714"
           height="634.28571"
           x="-1168.5714"
           y="2.519685" /></flowRegion><flowPara
         id="flowPara104" /></flowRoot>    <path
       d="m -221.59439,-48.70376 q -6.26156,0.04116 -9.73167,-3.815398 -3.45035,-3.856694 -3.29328,-10.995744 0.24469,-11.122485 5.87038,-18.168179 5.62625,-7.071575 14.04084,-7.126896 3.18017,-0.02091 5.87034,0.685553 2.71048,0.680452 5.59005,2.652926 l -1.87758,9.038357 -0.84935,0.0056 q -2.30544,-2.933161 -4.39393,-4.057379 -2.08792,-1.150098 -4.63599,-1.133345 -2.58759,0.01701 -4.71209,1.427569 -2.12394,1.384654 -3.65717,3.748237 -1.45137,2.233713 -2.30863,5.291099 -0.85724,3.05741 -0.93065,6.39416 -0.10187,4.630047 1.78552,6.815933 1.88794,2.160054 6.25326,2.131355 0.43455,-0.0028 0.94869,-0.03204 0.51414,-0.02919 0.94984,-0.0839 l 1.50933,-7.561767 -5.86651,0.03857 1.44383,-7.276842 13.57002,-0.08922 -3.77621,19.033746 q -2.65327,1.207097 -5.65582,2.132046 -2.98281,0.924793 -6.14322,0.945572 z"
       style="font-style:italic;font-variant:normal;font-weight:bold;font-stretch:normal;font-size:medium;line-height:1.25;font-family:sans-serif;-inkscape-font-specification:'sans-serif Bold Italic';text-align:start;letter-spacing:-0.00264583px;word-spacing:0px;text-anchor:start;fill:#000080;fill-opacity:1;stroke:none;stroke-width:0.54244775"
       id="path3794"
       inkscape:connector-curvature="0" />
    <path
       d="m -190.76053,-78.751762 -5.77472,29.081499 -7.15044,0.04701 5.77473,-29.081498 z m 2.41919,-11.214299 -1.39974,7.069607 -7.54549,0.04961 1.39975,-7.069607 z"
       style="font-style:italic;font-variant:normal;font-weight:bold;font-stretch:normal;font-size:medium;line-height:1.25;font-family:sans-serif;-inkscape-font-specification:'sans-serif Bold Italic';text-align:start;letter-spacing:-0.00264583px;word-spacing:0px;text-anchor:start;fill:#000080;fill-opacity:1;stroke:none;stroke-width:0.54244775"
       id="path3796"
       inkscape:connector-curvature="0" />
    <path
       d="m -132.6288,-90.332341 -4.20669,15.260613 -4.46408,0.02935 1.83637,-15.245026 z"
       style="font-style:italic;font-variant:normal;font-weight:bold;font-stretch:normal;font-size:medium;line-height:1.25;font-family:sans-serif;-inkscape-font-specification:'sans-serif Bold Italic';text-align:start;letter-spacing:-0.00264583px;word-spacing:0px;text-anchor:start;fill:#ff0000;fill-opacity:1;stroke:none;stroke-width:0.54244775"
       id="path3800"
       inkscape:connector-curvature="0" />
    <path
       d="m -149.36787,-72.558241 q -0.0177,0.801866 -0.13689,1.733683 -0.0996,0.931717 -0.29941,1.941672 l -3.75417,18.93012 -7.18992,0.04727 2.88707,-14.527807 q 0.28973,-1.501924 0.51747,-2.874136 0.24732,-1.372344 0.2661,-2.225924 0.033,-1.500236 -0.58371,-2.194479 -0.6167,-0.694218 -2.23644,-0.683569 -0.77034,0.005 -1.76877,0.503013 -0.97812,0.47196 -2.38184,1.438102 l -4.08745,20.61337 -7.18995,0.04727 2.88707,-14.527807 q 0.24504,-1.268871 0.4949,-2.744679 0.2496,-1.475791 0.26667,-2.251781 0.0347,-1.577851 -0.56225,-2.2722 -0.57666,-0.720357 -2.21612,-0.709579 -0.84935,0.0056 -1.86814,0.529519 -1.01875,0.523958 -2.30225,1.411727 l -4.08745,20.61337 -7.15044,0.04701 5.77472,-29.081498 7.15044,-0.04701 -0.64339,3.211185 q 2.21434,-1.902528 3.97588,-2.974477 1.78134,-1.072079 3.81583,-1.085455 2.19255,-0.01442 3.66529,1.269036 1.47329,1.25757 2.01123,3.736841 2.70206,-2.526425 4.82372,-3.807654 2.12165,-1.281205 4.07717,-1.294061 2.92339,-0.01922 4.42254,1.858894 1.49914,1.878115 1.42232,5.370037 z"
       style="font-style:italic;font-variant:normal;font-weight:bold;font-stretch:normal;font-size:medium;line-height:1.25;font-family:sans-serif;-inkscape-font-specification:'sans-serif Bold Italic';text-align:start;letter-spacing:-0.00264583px;word-spacing:0px;text-anchor:start;fill:#000080;fill-opacity:1;stroke:none;stroke-width:0.54244775"
       id="path3798"
       inkscape:connector-curvature="0" />
    <path
       d="m -125.08248,-49.338231 q -2.8444,0.0187 -5.49565,-0.662161 -2.65123,-0.680864 -4.05295,-1.602686 l 1.53137,-7.665366 0.65185,-0.0043 q 0.42375,0.488619 1.06249,1.07923 0.6585,0.590511 1.86894,1.229121 1.03381,0.588042 2.40682,1.018671 1.37357,0.404771 2.97356,0.394253 2.39009,-0.01572 3.59117,-0.747759 1.22084,-0.732173 1.25043,-2.077205 0.0228,-1.034644 -0.81464,-1.572271 -0.83744,-0.537608 -3.48639,-1.321921 -4.49323,-1.341171 -6.12952,-3.270092 -1.61653,-1.929046 -1.55279,-4.826081 0.10812,-4.91456 3.52811,-7.756062 3.42056,-2.86737 9.14882,-2.90503 2.48883,-0.01637 4.96284,0.639814 2.47461,0.630273 3.6235,1.372742 l -1.46527,7.354577 -0.61233,0.0041 q -1.37112,-1.413432 -3.3468,-2.279752 -1.95535,-0.89233 -4.04911,-0.878565 -2.27157,0.01494 -3.51216,0.74724 -1.22027,0.706295 -1.25271,2.18068 -0.025,1.13811 1.00818,1.75201 1.03383,0.588044 3.27139,1.219899 4.16137,1.16232 5.95851,2.960871 1.81693,1.798425 1.74522,5.057559 -0.10698,4.862847 -3.56646,7.704598 -3.4589,2.815896 -9.24642,2.853946 z"
       style="font-style:italic;font-variant:normal;font-weight:bold;font-stretch:normal;font-size:medium;line-height:1.25;font-family:sans-serif;-inkscape-font-specification:'sans-serif Bold Italic';text-align:start;letter-spacing:-0.00264583px;word-spacing:0px;text-anchor:start;fill:#000080;fill-opacity:1;stroke:none;stroke-width:0.54244775"
       id="path3802"
       inkscape:connector-curvature="0" />
  </g>
</svg>
